<svg width="26" height="46" viewBox="0 0 26 46" fill="none" xmlns="http://www.w3.org/2000/svg">
<path d="M0 5.33412V38.8886L7.22275 45.9976V0L0 5.33412ZM1.48815 36.7085C1.36927 36.6777 1.26399 36.6082 1.18884 36.5111C1.11369 36.414 1.07291 36.2946 1.07291 36.1718C1.07291 36.049 1.11369 35.9296 1.18884 35.8325C1.26399 35.7354 1.36927 35.6659 1.48815 35.6351C1.60703 35.6659 1.71231 35.7354 1.78746 35.8325C1.86262 35.9296 1.90339 36.049 1.90339 36.1718C1.90339 36.2946 1.86262 36.414 1.78746 36.5111C1.71231 36.6082 1.60703 36.6777 1.48815 36.7085ZM1.48815 34.8128C1.36254 34.7945 1.24891 34.7283 1.17114 34.6279C1.09337 34.5276 1.0575 34.4011 1.07109 34.2749C1.06282 34.2124 1.0671 34.1489 1.08367 34.0881C1.10025 34.0272 1.12879 33.9703 1.16763 33.9207C1.20647 33.871 1.25482 33.8296 1.30986 33.7989C1.36489 33.7682 1.42551 33.7487 1.48815 33.7417C1.61066 33.7583 1.72185 33.8221 1.79799 33.9195C1.87414 34.0168 1.90921 34.1401 1.89573 34.263C1.90954 34.3878 1.87498 34.5132 1.79916 34.6132C1.72333 34.7133 1.61202 34.7805 1.48815 34.8009V34.8128ZM1.48815 32.9052C1.36879 32.8753 1.26285 32.8063 1.18715 32.7093C1.11145 32.6123 1.07034 32.4927 1.07034 32.3697C1.07034 32.2466 1.11145 32.1271 1.18715 32.03C1.26285 31.933 1.36879 31.8641 1.48815 31.8341C1.60752 31.8641 1.71346 31.933 1.78915 32.03C1.86485 32.1271 1.90596 32.2466 1.90596 32.3697C1.90596 32.4927 1.86485 32.6123 1.78915 32.7093C1.71346 32.8063 1.60752 32.8753 1.48815 32.9052ZM1.48815 30.9976C1.36879 30.9677 1.26285 30.8987 1.18715 30.8017C1.11145 30.7047 1.07034 30.5851 1.07034 30.4621C1.07034 30.339 1.11145 30.2195 1.18715 30.1225C1.26285 30.0254 1.36879 29.9565 1.48815 29.9265C1.60752 29.9565 1.71346 30.0254 1.78915 30.1225C1.86485 30.2195 1.90596 30.339 1.90596 30.4621C1.90596 30.5851 1.86485 30.7047 1.78915 30.8017C1.71346 30.8987 1.60752 30.9677 1.48815 30.9976ZM1.48815 29.1019C1.36879 29.072 1.26285 29.003 1.18715 28.906C1.11145 28.8089 1.07034 28.6894 1.07034 28.5664C1.07034 28.4433 1.11145 28.3238 1.18715 28.2267C1.26285 28.1297 1.36879 28.0607 1.48815 28.0308C1.60752 28.0607 1.71346 28.1297 1.78915 28.2267C1.86485 28.3238 1.90596 28.4433 1.90596 28.5664C1.90596 28.6894 1.86485 28.8089 1.78915 28.906C1.71346 29.003 1.60752 29.072 1.48815 29.1019ZM1.48815 27.2062C1.36879 27.1762 1.26285 27.1073 1.18715 27.0102C1.11145 26.9132 1.07034 26.7937 1.07034 26.6706C1.07034 26.5476 1.11145 26.428 1.18715 26.331C1.26285 26.234 1.36879 26.165 1.48815 26.1351C1.60752 26.165 1.71346 26.234 1.78915 26.331C1.86485 26.428 1.90596 26.5476 1.90596 26.6706C1.90596 26.7937 1.86485 26.9132 1.78915 27.0102C1.71346 27.1073 1.60752 27.1762 1.48815 27.2062ZM1.48815 25.3104C1.36879 25.2805 1.26285 25.2115 1.18715 25.1145C1.11145 25.0175 1.07034 24.8979 1.07034 24.7749C1.07034 24.6518 1.11145 24.5323 1.18715 24.4353C1.26285 24.3382 1.36879 24.2693 1.48815 24.2393C1.60752 24.2693 1.71346 24.3382 1.78915 24.4353C1.86485 24.5323 1.90596 24.6518 1.90596 24.7749C1.90596 24.8979 1.86485 25.0175 1.78915 25.1145C1.71346 25.2115 1.60752 25.2805 1.48815 25.3104ZM1.48815 23.4028C1.36879 23.3729 1.26285 23.3039 1.18715 23.2069C1.11145 23.1099 1.07034 22.9904 1.07034 22.8673C1.07034 22.7442 1.11145 22.6247 1.18715 22.5277C1.26285 22.4306 1.36879 22.3617 1.48815 22.3318C1.60752 22.3617 1.71346 22.4306 1.78915 22.5277C1.86485 22.6247 1.90596 22.7442 1.90596 22.8673C1.90596 22.9904 1.86485 23.1099 1.78915 23.2069C1.71346 23.3039 1.60752 23.3729 1.48815 23.4028ZM1.48815 21.5071C1.36879 21.4772 1.26285 21.4082 1.18715 21.3112C1.11145 21.2142 1.07034 21.0946 1.07034 20.9716C1.07034 20.8485 1.11145 20.729 1.18715 20.6319C1.26285 20.5349 1.36879 20.466 1.48815 20.436C1.60752 20.466 1.71346 20.5349 1.78915 20.6319C1.86485 20.729 1.90596 20.8485 1.90596 20.9716C1.90596 21.0946 1.86485 21.2142 1.78915 21.3112C1.71346 21.4082 1.60752 21.4772 1.48815 21.5071ZM1.48815 19.6114C1.36879 19.5814 1.26285 19.5125 1.18715 19.4155C1.11145 19.3184 1.07034 19.1989 1.07034 19.0758C1.07034 18.9528 1.11145 18.8332 1.18715 18.7362C1.26285 18.6392 1.36879 18.5702 1.48815 18.5403C1.60752 18.5702 1.71346 18.6392 1.78915 18.7362C1.86485 18.8332 1.90596 18.9528 1.90596 19.0758C1.90596 19.1989 1.86485 19.3184 1.78915 19.4155C1.71346 19.5125 1.60752 19.5814 1.48815 19.6114ZM1.48815 17.7156C1.36879 17.6857 1.26285 17.6167 1.18715 17.5197C1.11145 17.4227 1.07034 17.3032 1.07034 17.1801C1.07034 17.057 1.11145 16.9375 1.18715 16.8405C1.26285 16.7434 1.36879 16.6745 1.48815 16.6446C1.60752 16.6745 1.71346 16.7434 1.78915 16.8405C1.86485 16.9375 1.90596 17.057 1.90596 17.1801C1.90596 17.3032 1.86485 17.4227 1.78915 17.5197C1.71346 17.6167 1.60752 17.6857 1.48815 17.7156ZM1.48815 15.8199C1.36927 15.7891 1.26399 15.7196 1.18884 15.6225C1.11369 15.5253 1.07291 15.406 1.07291 15.2832C1.07291 15.1604 1.11369 15.041 1.18884 14.9439C1.26399 14.8467 1.36927 14.7773 1.48815 14.7464C1.60703 14.7773 1.71231 14.8467 1.78746 14.9439C1.86262 15.041 1.90339 15.1604 1.90339 15.2832C1.90339 15.406 1.86262 15.5253 1.78746 15.6225C1.71231 15.7196 1.60703 15.7891 1.48815 15.8199ZM1.48815 13.9242C1.36927 13.8933 1.26399 13.8239 1.18884 13.7267C1.11369 13.6296 1.07291 13.5103 1.07291 13.3874C1.07291 13.2646 1.11369 13.1453 1.18884 13.0481C1.26399 12.951 1.36927 12.8816 1.48815 12.8507C1.60703 12.8816 1.71231 12.951 1.78746 13.0481C1.86262 13.1453 1.90339 13.2646 1.90339 13.3874C1.90339 13.5103 1.86262 13.6296 1.78746 13.7267C1.71231 13.8239 1.60703 13.8933 1.48815 13.9242ZM1.48815 12.0166C1.36879 11.9867 1.26285 11.9177 1.18715 11.8207C1.11145 11.7236 1.07034 11.6041 1.07034 11.481C1.07034 11.358 1.11145 11.2384 1.18715 11.1414C1.26285 11.0444 1.36879 10.9754 1.48815 10.9455C1.60752 10.9754 1.71346 11.0444 1.78915 11.1414C1.86485 11.2384 1.90596 11.358 1.90596 11.481C1.90596 11.6041 1.86485 11.7236 1.78915 11.8207C1.71346 11.9177 1.60752 11.9867 1.48815 12.0166ZM1.48815 10.1209C1.41481 10.114 1.34397 10.0906 1.28094 10.0525C1.21791 10.0144 1.16432 9.96248 1.1242 9.9007C1.08408 9.83892 1.05846 9.76886 1.04926 9.69578C1.04006 9.62269 1.04753 9.54847 1.07109 9.47867C1.05755 9.35274 1.09348 9.22648 1.1713 9.12655C1.24912 9.02662 1.36274 8.96085 1.48815 8.94313C1.61183 8.96305 1.72312 9.02975 1.79898 9.12944C1.87485 9.22912 1.90949 9.35416 1.89573 9.47867C1.9082 9.60242 1.87297 9.72626 1.79722 9.82491C1.72147 9.92356 1.61093 9.98958 1.48815 10.0095V10.1209ZM2.80095 37.6517C2.68158 37.6217 2.57564 37.5528 2.49995 37.4557C2.42425 37.3587 2.38314 37.2392 2.38314 37.1161C2.38314 36.993 2.42425 36.8735 2.49995 36.7765C2.57564 36.6795 2.68158 36.6105 2.80095 36.5806C2.92031 36.6105 3.02625 36.6795 3.10195 36.7765C3.17765 36.8735 3.21876 36.993 3.21876 37.1161C3.21876 37.2392 3.17765 37.3587 3.10195 37.4557C3.02625 37.5528 2.92031 37.6217 2.80095 37.6517ZM2.80095 35.7559C2.68158 35.726 2.57564 35.657 2.49995 35.56C2.42425 35.463 2.38314 35.3434 2.38314 35.2204C2.38314 35.0973 2.42425 34.9778 2.49995 34.8808C2.57564 34.7837 2.68158 34.7148 2.80095 34.6848C2.92031 34.7148 3.02625 34.7837 3.10195 34.8808C3.17765 34.9778 3.21876 35.0973 3.21876 35.2204C3.21876 35.3434 3.17765 35.463 3.10195 35.56C3.02625 35.657 2.92031 35.726 2.80095 35.7559ZM2.80095 33.8602C2.68158 33.8303 2.57564 33.7613 2.49995 33.6643C2.42425 33.5672 2.38314 33.4477 2.38314 33.3246C2.38314 33.2016 2.42425 33.0821 2.49995 32.985C2.57564 32.888 2.68158 32.819 2.80095 32.7891C2.92031 32.819 3.02625 32.888 3.10195 32.985C3.17765 33.0821 3.21876 33.2016 3.21876 33.3246C3.21876 33.4477 3.17765 33.5672 3.10195 33.6643C3.02625 33.7613 2.92031 33.8303 2.80095 33.8602ZM2.80095 31.9645C2.68158 31.9345 2.57564 31.8656 2.49995 31.7685C2.42425 31.6715 2.38314 31.552 2.38314 31.4289C2.38314 31.3058 2.42425 31.1863 2.49995 31.0893C2.57564 30.9923 2.68158 30.9233 2.80095 30.8934C2.92031 30.9233 3.02625 30.9923 3.10195 31.0893C3.17765 31.1863 3.21876 31.3058 3.21876 31.4289C3.21876 31.552 3.17765 31.6715 3.10195 31.7685C3.02625 31.8656 2.92031 31.9345 2.80095 31.9645ZM2.80095 30.0687C2.68158 30.0388 2.57564 29.9698 2.49995 29.8728C2.42425 29.7758 2.38314 29.6562 2.38314 29.5332C2.38314 29.4101 2.42425 29.2906 2.49995 29.1936C2.57564 29.0965 2.68158 29.0276 2.80095 28.9976C2.92031 29.0276 3.02625 29.0965 3.10195 29.1936C3.17765 29.2906 3.21876 29.4101 3.21876 29.5332C3.21876 29.6562 3.17765 29.7758 3.10195 29.8728C3.02625 29.9698 2.92031 30.0388 2.80095 30.0687ZM2.80095 28.173C2.68158 28.143 2.57564 28.0741 2.49995 27.9771C2.42425 27.88 2.38314 27.7605 2.38314 27.6374C2.38314 27.5144 2.42425 27.3948 2.49995 27.2978C2.57564 27.2008 2.68158 27.1318 2.80095 27.1019C2.92031 27.1318 3.02625 27.2008 3.10195 27.2978C3.17765 27.3948 3.21876 27.5144 3.21876 27.6374C3.21876 27.7605 3.17765 27.88 3.10195 27.9771C3.02625 28.0741 2.92031 28.143 2.80095 28.173ZM2.80095 26.2773C2.68107 26.2483 2.57442 26.1798 2.49815 26.0829C2.42188 25.986 2.38041 25.8662 2.38041 25.7429C2.38041 25.6196 2.42188 25.4998 2.49815 25.4029C2.57442 25.306 2.68107 25.2375 2.80095 25.2085C2.92082 25.2375 3.02747 25.306 3.10374 25.4029C3.18002 25.4998 3.22149 25.6196 3.22149 25.7429C3.22149 25.8662 3.18002 25.986 3.10374 26.0829C3.02747 26.1798 2.92082 26.2483 2.80095 26.2773ZM2.80095 24.3815C2.68158 24.3516 2.57564 24.2826 2.49995 24.1856C2.42425 24.0886 2.38314 23.969 2.38314 23.846C2.38314 23.7229 2.42425 23.6034 2.49995 23.5063C2.57564 23.4093 2.68158 23.3404 2.80095 23.3104C2.92031 23.3404 3.02625 23.4093 3.10195 23.5063C3.17765 23.6034 3.21876 23.7229 3.21876 23.846C3.21876 23.969 3.17765 24.0886 3.10195 24.1856C3.02625 24.2826 2.92031 24.3516 2.80095 24.3815ZM2.80095 22.4858C2.68158 22.4558 2.57564 22.3869 2.49995 22.2899C2.42425 22.1928 2.38314 22.0733 2.38314 21.9502C2.38314 21.8272 2.42425 21.7076 2.49995 21.6106C2.57564 21.5136 2.68158 21.4446 2.80095 21.4147C2.92031 21.4446 3.02625 21.5136 3.10195 21.6106C3.17765 21.7076 3.21876 21.8272 3.21876 21.9502C3.21876 22.0733 3.17765 22.1928 3.10195 22.2899C3.02625 22.3869 2.92031 22.4558 2.80095 22.4858ZM2.80095 20.59C2.68158 20.5601 2.57564 20.4912 2.49995 20.3941C2.42425 20.2971 2.38314 20.1776 2.38314 20.0545C2.38314 19.9314 2.42425 19.8119 2.49995 19.7149C2.57564 19.6179 2.68158 19.5489 2.80095 19.519C2.92031 19.5489 3.02625 19.6179 3.10195 19.7149C3.17765 19.8119 3.21876 19.9314 3.21876 20.0545C3.21876 20.1776 3.17765 20.2971 3.10195 20.3941C3.02625 20.4912 2.92031 20.5601 2.80095 20.59ZM2.80095 18.6943C2.68158 18.6644 2.57564 18.5954 2.49995 18.4984C2.42425 18.4014 2.38314 18.2818 2.38314 18.1588C2.38314 18.0357 2.42425 17.9162 2.49995 17.8191C2.57564 17.7221 2.68158 17.6532 2.80095 17.6232C2.92031 17.6532 3.02625 17.7221 3.10195 17.8191C3.17765 17.9162 3.21876 18.0357 3.21876 18.1588C3.21876 18.2818 3.17765 18.4014 3.10195 18.4984C3.02625 18.5954 2.92031 18.6644 2.80095 18.6943ZM2.80095 16.7986C2.68107 16.7696 2.57442 16.7011 2.49815 16.6042C2.42188 16.5073 2.38041 16.3875 2.38041 16.2642C2.38041 16.1409 2.42188 16.0211 2.49815 15.9242C2.57442 15.8273 2.68107 15.7588 2.80095 15.7299C2.92082 15.7588 3.02747 15.8273 3.10374 15.9242C3.18002 16.0211 3.22149 16.1409 3.22149 16.2642C3.22149 16.3875 3.18002 16.5073 3.10374 16.6042C3.02747 16.7011 2.92082 16.7696 2.80095 16.7986ZM2.80095 14.9028C2.68158 14.8729 2.57564 14.8039 2.49995 14.7069C2.42425 14.6099 2.38314 14.4904 2.38314 14.3673C2.38314 14.2442 2.42425 14.1247 2.49995 14.0277C2.57564 13.9306 2.68158 13.8617 2.80095 13.8318C2.92031 13.8617 3.02625 13.9306 3.10195 14.0277C3.17765 14.1247 3.21876 14.2442 3.21876 14.3673C3.21876 14.4904 3.17765 14.6099 3.10195 14.7069C3.02625 14.8039 2.92031 14.8729 2.80095 14.9028ZM2.80095 13.0071C2.68158 12.9772 2.57564 12.9082 2.49995 12.8112C2.42425 12.7142 2.38314 12.5946 2.38314 12.4716C2.38314 12.3485 2.42425 12.229 2.49995 12.1319C2.57564 12.0349 2.68158 11.966 2.80095 11.936C2.92031 11.966 3.02625 12.0349 3.10195 12.1319C3.17765 12.229 3.21876 12.3485 3.21876 12.4716C3.21876 12.5946 3.17765 12.7142 3.10195 12.8112C3.02625 12.9082 2.92031 12.9772 2.80095 13.0071ZM2.80095 11.1114C2.67534 11.0931 2.56171 11.0268 2.48394 10.9265C2.40616 10.8262 2.3703 10.6997 2.38389 10.5735C2.37034 10.4475 2.40628 10.3213 2.4841 10.2213C2.56192 10.1214 2.67554 10.0556 2.80095 10.0379C2.92636 10.0556 3.03998 10.1214 3.1178 10.2213C3.19562 10.3213 3.23155 10.4475 3.21801 10.5735C3.17916 10.652 3.11999 10.7187 3.04665 10.7666C2.97331 10.8145 2.88847 10.8419 2.80095 10.846V11.1114ZM2.80095 9.20379C2.67554 9.18607 2.56192 9.1203 2.4841 9.02037C2.40628 8.92044 2.37034 8.79418 2.38389 8.66825C2.37034 8.54231 2.40628 8.41605 2.4841 8.31612C2.56192 8.21619 2.67554 8.15042 2.80095 8.1327C2.92636 8.15042 3.03998 8.21619 3.1178 8.31612C3.19562 8.41605 3.23155 8.54231 3.21801 8.66825C3.17905 8.74649 3.11979 8.81284 3.04642 8.86036C2.97306 8.90788 2.88828 8.93482 2.80095 8.93839V9.20379ZM4.11137 38.3507C3.99201 38.3208 3.88607 38.2518 3.81037 38.1548C3.73468 38.0578 3.69356 37.9382 3.69356 37.8152C3.69356 37.6921 3.73468 37.5726 3.81037 37.4755C3.88607 37.3785 3.99201 37.3096 4.11137 37.2796C4.23074 37.3096 4.33668 37.3785 4.41238 37.4755C4.48807 37.5726 4.52919 37.6921 4.52919 37.8152C4.52919 37.9382 4.48807 38.0578 4.41238 38.1548C4.33668 38.2518 4.23074 38.3208 4.11137 38.3507ZM4.11137 36.4431C3.9915 36.4141 3.88485 36.3457 3.80858 36.2488C3.7323 36.1519 3.69083 36.0321 3.69083 35.9088C3.69083 35.7854 3.7323 35.6657 3.80858 35.5688C3.88485 35.4719 3.9915 35.4034 4.11137 35.3744C4.23125 35.4034 4.3379 35.4719 4.41417 35.5688C4.49044 35.6657 4.53191 35.7854 4.53191 35.9088C4.53191 36.0321 4.49044 36.1519 4.41417 36.2488C4.3379 36.3457 4.23125 36.4141 4.11137 36.4431ZM4.11137 34.5474C3.99201 34.5175 3.88607 34.4485 3.81037 34.3515C3.73468 34.2544 3.69356 34.1349 3.69356 34.0118C3.69356 33.8888 3.73468 33.7693 3.81037 33.6722C3.88607 33.5752 3.99201 33.5062 4.11137 33.4763C4.23074 33.5062 4.33668 33.5752 4.41238 33.6722C4.48807 33.7693 4.52919 33.8888 4.52919 34.0118C4.52919 34.1349 4.48807 34.2544 4.41238 34.3515C4.33668 34.4485 4.23074 34.5175 4.11137 34.5474ZM4.11137 32.6398C3.99201 32.6099 3.88607 32.5409 3.81037 32.4439C3.73468 32.3469 3.69356 32.2273 3.69356 32.1043C3.69356 31.9812 3.73468 31.8617 3.81037 31.7646C3.88607 31.6676 3.99201 31.5987 4.11137 31.5687C4.23074 31.5987 4.33668 31.6676 4.41238 31.7646C4.48807 31.8617 4.52919 31.9812 4.52919 32.1043C4.52919 32.2273 4.48807 32.3469 4.41238 32.4439C4.33668 32.5409 4.23074 32.6099 4.11137 32.6398ZM4.11137 30.7441C3.9915 30.7151 3.88485 30.6466 3.80858 30.5497C3.7323 30.4528 3.69083 30.333 3.69083 30.2097C3.69083 30.0864 3.7323 29.9666 3.80858 29.8697C3.88485 29.7728 3.9915 29.7043 4.11137 29.6754C4.23125 29.7043 4.3379 29.7728 4.41417 29.8697C4.49044 29.9666 4.53191 30.0864 4.53191 30.2097C4.53191 30.333 4.49044 30.4528 4.41417 30.5497C4.3379 30.6466 4.23125 30.7151 4.11137 30.7441ZM4.11137 28.8483C3.99092 28.8193 3.88374 28.7505 3.80709 28.6532C3.73043 28.5558 3.68875 28.4355 3.68875 28.3116C3.68875 28.1877 3.73043 28.0674 3.80709 27.97C3.88374 27.8727 3.99092 27.8039 4.11137 27.7749C4.23026 27.8057 4.33553 27.8752 4.41069 27.9723C4.48584 28.0695 4.52661 28.1888 4.52661 28.3116C4.52661 28.4344 4.48584 28.5538 4.41069 28.6509C4.33553 28.7481 4.23026 28.8175 4.11137 28.8483ZM4.11137 26.9526C3.99201 26.9227 3.88607 26.8537 3.81037 26.7567C3.73468 26.6597 3.69356 26.5401 3.69356 26.4171C3.69356 26.294 3.73468 26.1745 3.81037 26.0774C3.88607 25.9804 3.99201 25.9115 4.11137 25.8815C4.23074 25.9115 4.33668 25.9804 4.41238 26.0774C4.48807 26.1745 4.52919 26.294 4.52919 26.4171C4.52919 26.5401 4.48807 26.6597 4.41238 26.7567C4.33668 26.8537 4.23074 26.9227 4.11137 26.9526ZM4.11137 25.0569C3.99092 25.0278 3.88374 24.9591 3.80709 24.8617C3.73043 24.7644 3.68875 24.6441 3.68875 24.5201C3.68875 24.3962 3.73043 24.2759 3.80709 24.1786C3.88374 24.0812 3.99092 24.0125 4.11137 23.9834C4.23026 24.0143 4.33553 24.0837 4.41069 24.1808C4.48584 24.278 4.52661 24.3973 4.52661 24.5201C4.52661 24.643 4.48584 24.7623 4.41069 24.8594C4.33553 24.9566 4.23026 25.026 4.11137 25.0569ZM4.11137 23.1611C3.99092 23.1321 3.88374 23.0633 3.80709 22.966C3.73043 22.8686 3.68875 22.7483 3.68875 22.6244C3.68875 22.5005 3.73043 22.3802 3.80709 22.2828C3.88374 22.1855 3.99092 22.1167 4.11137 22.0877C4.23026 22.1185 4.33553 22.188 4.41069 22.2851C4.48584 22.3822 4.52661 22.5016 4.52661 22.6244C4.52661 22.7472 4.48584 22.8666 4.41069 22.9637C4.33553 23.0609 4.23026 23.1303 4.11137 23.1611ZM4.11137 21.2654C3.99459 21.316 3.86273 21.3192 3.74363 21.2743C3.62453 21.2295 3.52752 21.1401 3.47308 21.0251C3.41865 20.9101 3.41104 20.7784 3.45188 20.6579C3.49272 20.5373 3.5788 20.4374 3.69194 20.3791C3.68368 20.3165 3.68804 20.2528 3.70477 20.1918C3.72149 20.1309 3.75024 20.0739 3.78932 20.0242C3.8284 19.9745 3.87703 19.9331 3.93234 19.9025C3.98765 19.8719 4.04852 19.8527 4.11137 19.846C4.17402 19.853 4.23463 19.8724 4.28967 19.9032C4.3447 19.9339 4.39306 19.9753 4.4319 20.025C4.47073 20.0746 4.49928 20.1315 4.51585 20.1923C4.53243 20.2531 4.53671 20.3167 4.52844 20.3791C4.54137 20.505 4.50521 20.6309 4.4275 20.7307C4.34978 20.8305 4.23653 20.8964 4.11137 20.9147V21.2654ZM4.11137 19.3578C3.99201 19.3279 3.88607 19.2589 3.81037 19.1619C3.73468 19.0649 3.69356 18.9453 3.69356 18.8223C3.69356 18.6992 3.73468 18.5797 3.81037 18.4827C3.88607 18.3856 3.99201 18.3167 4.11137 18.2867C4.23074 18.3167 4.33668 18.3856 4.41238 18.4827C4.48807 18.5797 4.52919 18.6992 4.52919 18.8223C4.52919 18.9453 4.48807 19.0649 4.41238 19.1619C4.33668 19.2589 4.23074 19.3279 4.11137 19.3578ZM4.11137 17.4621C3.99201 17.4321 3.88607 17.3632 3.81037 17.2662C3.73468 17.1691 3.69356 17.0496 3.69356 16.9265C3.69356 16.8035 3.73468 16.6839 3.81037 16.5869C3.88607 16.4899 3.99201 16.4209 4.11137 16.391C4.23074 16.4209 4.33668 16.4899 4.41238 16.5869C4.48807 16.6839 4.52919 16.8035 4.52919 16.9265C4.52919 17.0496 4.48807 17.1691 4.41238 17.2662C4.33668 17.3632 4.23074 17.4321 4.11137 17.4621ZM4.11137 15.5664C3.9915 15.5374 3.88485 15.4689 3.80858 15.372C3.7323 15.2751 3.69083 15.1553 3.69083 15.032C3.69083 14.9087 3.7323 14.7889 3.80858 14.692C3.88485 14.5951 3.9915 14.5266 4.11137 14.4976C4.23125 14.5266 4.3379 14.5951 4.41417 14.692C4.49044 14.7889 4.53191 14.9087 4.53191 15.032C4.53191 15.1553 4.49044 15.2751 4.41417 15.372C4.3379 15.4689 4.23125 15.5374 4.11137 15.5664ZM4.11137 13.6706C3.99201 13.6407 3.88607 13.5717 3.81037 13.4747C3.73468 13.3777 3.69356 13.2581 3.69356 13.1351C3.69356 13.012 3.73468 12.8925 3.81037 12.7954C3.88607 12.6984 3.99201 12.6295 4.11137 12.5995C4.23074 12.6295 4.33668 12.6984 4.41238 12.7954C4.48807 12.8925 4.52919 13.012 4.52919 13.1351C4.52919 13.2581 4.48807 13.3777 4.41238 13.4747C4.33668 13.5717 4.23074 13.6407 4.11137 13.6706ZM4.11137 11.7749C3.99201 11.7449 3.88607 11.676 3.81037 11.579C3.73468 11.4819 3.69356 11.3624 3.69356 11.2393C3.69356 11.1163 3.73468 10.9967 3.81037 10.8997C3.88607 10.8027 3.99201 10.7337 4.11137 10.7038C4.23074 10.7337 4.33668 10.8027 4.41238 10.8997C4.48807 10.9967 4.52919 11.1163 4.52919 11.2393C4.52919 11.3624 4.48807 11.4819 4.41238 11.579C4.33668 11.676 4.23074 11.7449 4.11137 11.7749ZM4.11137 9.8673C3.98553 9.85014 3.87133 9.78461 3.79302 9.68461C3.7147 9.58462 3.67845 9.45804 3.69194 9.33175C3.68368 9.26908 3.68804 9.20539 3.70477 9.14443C3.72149 9.08348 3.75024 9.02648 3.78932 8.97679C3.8284 8.92711 3.87703 8.88575 3.93234 8.85515C3.98765 8.82454 4.04852 8.80531 4.11137 8.79858C4.17402 8.8056 4.23463 8.82504 4.28967 8.85578C4.3447 8.88651 4.39306 8.92791 4.4319 8.97756C4.47073 9.02721 4.49928 9.08411 4.51585 9.14493C4.53243 9.20575 4.53671 9.26926 4.52844 9.33175C4.47539 9.38734 4.40997 9.42962 4.33749 9.45514C4.26502 9.48067 4.18755 9.48874 4.11137 9.47867V9.8673ZM4.11137 7.97156C3.98553 7.9544 3.87133 7.88887 3.79302 7.78888C3.7147 7.68889 3.67845 7.56231 3.69194 7.43602C3.67841 7.30946 3.71459 7.1826 3.79285 7.08222C3.87112 6.98185 3.98533 6.91583 4.11137 6.8981C4.23698 6.91638 4.35061 6.98264 4.42839 7.08295C4.50616 7.18326 4.54202 7.30982 4.52844 7.43602C4.47382 7.48865 4.4077 7.52783 4.3353 7.55045C4.26291 7.57308 4.18624 7.57852 4.11137 7.56635V7.97156Z" fill="white"/>
<path d="M25.5571 8.88863V0.888626L8.55713 0V46L25.5571 45.1114V10.5142H11.0737V8.88863H25.5571ZM22.3344 3.48104C22.6423 3.48104 22.9433 3.57235 23.1993 3.74342C23.4554 3.91449 23.6549 4.15764 23.7727 4.44213C23.8906 4.72661 23.9214 5.03964 23.8613 5.34165C23.8013 5.64365 23.653 5.92106 23.4353 6.13879C23.2175 6.35652 22.9401 6.5048 22.6381 6.56487C22.3361 6.62494 22.0231 6.59411 21.7386 6.47628C21.4541 6.35844 21.211 6.15889 21.0399 5.90287C20.8688 5.64684 20.7775 5.34583 20.7775 5.03791C20.7772 4.83338 20.8173 4.63079 20.8954 4.44176C20.9735 4.25273 21.0882 4.08098 21.2328 3.93634C21.3774 3.79171 21.5492 3.67705 21.7382 3.59892C21.9272 3.52079 22.1298 3.48073 22.3344 3.48104Z" fill="white"/>
</svg>
