<svg width="33" height="32" viewBox="0 0 33 32" fill="none" xmlns="http://www.w3.org/2000/svg">
<path d="M29.8015 10.911C27.7332 5.22331 22.3692 1.43152 16.3687 1.43152C10.3682 1.40868 4.98145 5.17763 2.89038 10.8653C0.799308 16.553 2.45853 22.926 7.00433 26.8777L4.66324 29.2532C4.02683 29.8928 4.02683 30.8979 4.66324 31.5374C5.29965 32.1542 6.29973 32.1542 6.91342 31.5374L9.68636 28.7279C13.8003 30.8979 18.7325 30.8979 22.8465 28.7507L25.5967 31.5374C26.2331 32.1542 27.2332 32.1542 27.8696 31.5374C28.506 30.8979 28.506 29.87 27.8696 29.2532L25.5967 26.9233C30.1879 22.9716 31.8472 16.5987 29.8015 10.911ZM21.1191 18.4717H14.7777C14.3003 18.4717 13.914 18.0834 13.914 17.5809V9.12932V8.96942C14.0049 8.19279 14.7095 7.64458 15.4823 7.73595C16.1869 7.82732 16.7324 8.44405 16.7096 9.175V15.6393H21.0963C21.8237 15.6393 22.4373 16.1647 22.5283 16.8728V17.0555C22.5283 17.8322 21.8918 18.4717 21.1191 18.4717ZM7.93622 2.09394C6.59521 0.0153056 3.61771 -0.898379 1.27662 1.15741C-0.859912 3.05331 -0.155312 6.61668 2.20851 7.50753C2.20851 7.53037 3.64044 4.28678 7.93622 2.09394ZM31.4608 1.18025C29.1197 -0.875538 26.1422 0.0381481 24.8012 2.11678C29.0969 4.30963 30.5289 7.55321 30.5289 7.55321C32.9154 6.63952 33.5973 3.07615 31.4608 1.18025Z" fill="white"/>
</svg>
