<svg width="46" height="45" viewBox="0 0 46 45" fill="none" xmlns="http://www.w3.org/2000/svg">
<path d="M22.9023 0C23.3442 0 23.6609 0.156592 23.9462 0.441937C25.5644 2.08441 31.2051 7.67996 32.5762 9.04057L32.8789 9.33984C32.9764 9.43727 33.1956 9.37463 33.1956 9.37463C33.1956 9.37463 33.3557 9.33984 33.387 9.2772C33.4496 9.21456 33.4496 9.02317 33.4496 9.02317V7.76C33.4496 7.06403 34.0203 6.49334 34.7163 6.49334H36.839C37.5349 6.49334 38.1056 7.06403 38.1056 7.76V14.5387L45.5803 21.9507C45.6151 21.9855 45.8969 22.3926 45.9631 22.7441C46.0257 23.0921 46.057 23.9133 45.6429 24.9294C45.201 25.9107 44.0596 26.1334 43.9343 26.1648H39.595L39.5985 29.3836C39.1813 29.262 38.7489 29.2011 38.3144 29.2026H21.2703C19.6695 29.2026 18.3124 29.996 18.3124 31.0365L18.3089 44.5034H7.73028C7.06563 44.5034 6.49842 43.9223 6.36619 43.3516L6.33835 43.108V26.1613H2.03033C1.96421 26.1613 1.87026 26.1613 1.80762 26.1334C1.61623 26.0673 0.982904 25.7855 0.380895 24.6719L0.224303 24.3239C-0.189795 23.3461 0.0329134 22.4901 0.380895 22.0447C0.380895 22.0133 0.415694 21.982 0.447012 21.9507L21.9836 0.375821C21.9836 0.375821 22.4604 0 22.9023 0Z" fill="white"/>
<path d="M43.085 32.9888C43.8233 32.9888 44.5314 33.2821 45.0535 33.8041C45.5755 34.3262 45.8688 35.0343 45.8688 35.7726V42.0363C45.8688 42.7746 45.5755 43.4827 45.0535 44.0048C44.5314 44.5269 43.8233 44.8202 43.085 44.8202H24.9899C24.2516 44.8202 23.5435 44.5269 23.0214 44.0048C22.4994 43.4827 22.2061 42.7746 22.2061 42.0363V35.7726C22.2061 35.0343 22.4994 34.3262 23.0214 33.8041C23.5435 33.2821 24.2516 32.9888 24.9899 32.9888H43.085ZM27.4258 35.7726C27.1973 35.7726 26.971 35.8176 26.7599 35.905C26.5487 35.9924 26.3569 36.1206 26.1953 36.2821C26.0337 36.4437 25.9055 36.6355 25.8181 36.8466C25.7306 37.0578 25.6856 37.284 25.6856 37.5125C25.6856 37.741 25.7306 37.9673 25.8181 38.1784C25.9055 38.3896 26.0337 38.5814 26.1953 38.7429C26.3569 38.9045 26.5487 39.0327 26.7599 39.1201C26.971 39.2075 27.1973 39.2525 27.4258 39.2524C27.8872 39.2524 28.3297 39.069 28.6559 38.7427C28.9821 38.4165 29.1654 37.9739 29.1654 37.5125C29.1654 37.0511 28.9821 36.6086 28.6559 36.2823C28.3297 35.956 27.8872 35.7727 27.4258 35.7726ZM33.6895 35.7726C33.461 35.7726 33.2347 35.8176 33.0235 35.905C32.8124 35.9924 32.6206 36.1206 32.459 36.2821C32.2974 36.4437 32.1692 36.6355 32.0817 36.8466C31.9943 37.0578 31.9493 37.284 31.9493 37.5125C31.9493 37.741 31.9943 37.9673 32.0817 38.1784C32.1692 38.3896 32.2974 38.5814 32.459 38.7429C32.6206 38.9045 32.8124 39.0327 33.0235 39.1201C33.2347 39.2075 33.461 39.2525 33.6895 39.2524C34.1509 39.2524 34.5933 39.069 34.9196 38.7427C35.2458 38.4165 35.4291 37.9739 35.4291 37.5125C35.4291 37.0511 35.2458 36.6086 34.9196 36.2823C34.5933 35.956 34.1509 35.7727 33.6895 35.7726Z" fill="white"/>
</svg>
