<svg width="46" height="45" viewBox="0 0 46 45" fill="none" xmlns="http://www.w3.org/2000/svg">
<path d="M35.3946 8.00667H42.152C42.5855 7.9898 42.9956 7.80761 43.2962 7.4983C43.5969 7.18899 43.7649 6.77658 43.7649 6.34751C43.7649 5.91844 43.5969 5.50602 43.2962 5.19671C42.9956 4.8874 42.5855 4.70522 42.152 4.68834H35.3946C35.1687 4.67954 34.9434 4.71595 34.7321 4.79537C34.5208 4.87478 34.3279 4.99558 34.1649 5.15052C34.002 5.30545 33.8723 5.49134 33.7838 5.69702C33.6952 5.9027 33.6496 6.12395 33.6496 6.34751C33.6496 6.57106 33.6952 6.79231 33.7838 6.99799C33.8723 7.20368 34.002 7.38956 34.1649 7.54449C34.3279 7.69943 34.5208 7.82023 34.7321 7.89965C34.9434 7.97906 35.1687 8.01547 35.3946 8.00667ZM1.6129 8.00667H22.2619V11.0705C22.2633 11.6571 22.4995 12.2192 22.9188 12.6339C23.3382 13.0487 23.9066 13.2823 24.4996 13.2836H28.9777C29.5698 13.2809 30.1369 13.0467 30.5551 12.6321C30.9734 12.2175 31.2088 11.6562 31.2102 11.0705V2.21051C31.2082 1.62443 30.9716 1.06297 30.5524 0.648785C30.1331 0.2346 29.5651 0.00135472 28.9725 0H24.4996C23.907 0.00135472 23.339 0.2346 22.9197 0.648785C22.5004 1.06297 22.2639 1.62443 22.2619 2.21051V4.68834H1.6129C1.17939 4.70522 0.769311 4.8874 0.468627 5.19671C0.167944 5.50602 0 5.91844 0 6.34751C0 6.77658 0.167944 7.18899 0.468627 7.4983C0.769311 7.80761 1.17939 7.9898 1.6129 8.00667ZM1.6129 23.6062H10.608C11.0415 23.5893 11.4516 23.4071 11.7523 23.0978C12.053 22.7885 12.2209 22.3761 12.2209 21.947C12.2209 21.518 12.053 21.1055 11.7523 20.7962C11.4516 20.4869 11.0415 20.3047 10.608 20.2879H1.6129C1.17939 20.3047 0.769311 20.4869 0.468627 20.7962C0.167944 21.1055 0 21.518 0 21.947C0 22.3761 0.167944 22.7885 0.468627 23.0978C0.769311 23.4071 1.17939 23.5893 1.6129 23.6062ZM44.3871 20.2879H24.4996V17.6995C24.4976 17.1132 24.2611 16.5515 23.8419 16.1369C23.4227 15.7223 22.8547 15.4885 22.2619 15.4864H17.802C17.209 15.4878 16.6406 15.7214 16.2212 16.1361C15.8019 16.5509 15.5657 17.113 15.5643 17.6995V26.5467C15.5657 27.1332 15.8019 27.6953 16.2212 28.1101C16.6406 28.5248 17.209 28.7584 17.802 28.7598H22.2619C22.8547 28.7577 23.4227 28.5239 23.8419 28.1093C24.2611 27.6947 24.4976 27.133 24.4996 26.5467V23.6062H44.3871C44.8206 23.5893 45.2307 23.4071 45.5314 23.0978C45.8321 22.7885 46 22.3761 46 21.947C46 21.518 45.8321 21.1055 45.5314 20.7962C45.2307 20.4869 44.8206 20.3047 44.3871 20.2879ZM42.1494 35.8848H35.392C35.1661 35.876 34.9408 35.9124 34.7295 35.9918C34.5182 36.0713 34.3253 36.1921 34.1623 36.347C33.9994 36.5019 33.8697 36.6878 33.7812 36.8935C33.6926 37.0992 33.647 37.3204 33.647 37.544C33.647 37.7675 33.6926 37.9888 33.7812 38.1945C33.8697 38.4001 33.9994 38.586 34.1623 38.741C34.3253 38.8959 34.5182 39.0167 34.7295 39.0961C34.9408 39.1755 35.1661 39.2119 35.392 39.2031H42.1494C42.5829 39.1863 42.993 39.0041 43.2936 38.6948C43.5943 38.3855 43.7623 37.973 43.7623 37.544C43.7623 37.1149 43.5943 36.7025 43.2936 36.3932C42.993 36.0839 42.5829 35.9017 42.1494 35.8848ZM28.9777 30.9728H24.4996C23.9083 30.9742 23.3415 31.2064 22.9225 31.6189C22.5034 32.0314 22.266 32.5909 22.2619 33.1756V35.8745H1.6129C1.17939 35.8914 0.769311 36.0736 0.468627 36.3829C0.167944 36.6922 0 37.1046 0 37.5337C0 37.9628 0.167944 38.3752 0.468627 38.6845C0.769311 38.9938 1.17939 39.176 1.6129 39.1929H22.2619V42.0203C22.2639 42.6063 22.5004 43.1678 22.9197 43.582C23.339 43.9962 23.907 44.2294 24.4996 44.2308H28.9777C29.5703 44.2294 30.1383 43.9962 30.5576 43.582C30.9768 43.1678 31.2134 42.6063 31.2154 42.0203V33.1756C31.2113 32.5909 30.9739 32.0314 30.5548 31.6189C30.1358 31.2064 29.5689 30.9742 28.9777 30.9728Z" fill="white"/>
</svg>
