<svg width="41" height="32" viewBox="0 0 41 32" fill="none" xmlns="http://www.w3.org/2000/svg">
<path d="M31.2932 7.60369H9.05219C6.63409 7.65465 4.33213 8.65571 2.63992 10.3922C0.947714 12.1287 0 14.4623 0 16.8928C0 19.3232 0.947714 21.6568 2.63992 23.3933C4.33213 25.1298 6.63409 26.1309 9.05219 26.1818H16.5214L23.8402 32L26.9995 26.1818H31.2241C33.6756 26.1797 36.0261 25.2001 37.7597 23.4581C39.4932 21.7162 40.468 19.3542 40.4701 16.8907C40.482 15.6733 40.2532 14.4657 39.797 13.3378C39.3408 12.21 38.6663 11.1843 37.8127 10.3204C36.959 9.45654 35.9432 8.77155 34.824 8.30519C33.7049 7.83883 32.5047 7.60039 31.2932 7.60369ZM11.4877 18.9745C11.0776 18.9745 10.6767 18.8523 10.3357 18.6233C9.99465 18.3943 9.72887 18.0689 9.57192 17.6881C9.41497 17.3074 9.3739 16.8884 9.45391 16.4842C9.53393 16.08 9.73142 15.7087 10.0214 15.4173C10.3114 15.1259 10.6809 14.9274 11.0832 14.847C11.4854 14.7666 11.9024 14.8079 12.2813 14.9656C12.6602 15.1233 12.9841 15.3904 13.2119 15.733C13.4398 16.0757 13.5614 16.4786 13.5614 16.8907C13.5625 17.1647 13.5096 17.4361 13.4057 17.6894C13.3019 17.9427 13.1492 18.1729 12.9564 18.3666C12.7637 18.5603 12.5346 18.7137 12.2826 18.8181C12.0305 18.9224 11.7603 18.9755 11.4877 18.9745ZM20.1727 18.9745C19.7626 18.9745 19.3616 18.8523 19.0206 18.6233C18.6796 18.3943 18.4138 18.0689 18.2569 17.6881C18.0999 17.3074 18.0589 16.8884 18.1389 16.4842C18.2189 16.08 18.4164 15.7087 18.7064 15.4173C18.9964 15.1259 19.3659 14.9274 19.7681 14.847C20.1704 14.7666 20.5873 14.8079 20.9662 14.9656C21.3452 15.1233 21.669 15.3904 21.8969 15.733C22.1247 16.0757 22.2464 16.4786 22.2464 16.8907C22.2474 17.1647 22.1945 17.4361 22.0907 17.6894C21.9869 17.9427 21.8342 18.1729 21.6414 18.3666C21.4486 18.5603 21.2196 18.7137 20.9675 18.8181C20.7154 18.9224 20.4453 18.9755 20.1727 18.9745ZM28.8577 18.9745C28.4475 18.9745 28.0466 18.8523 27.7056 18.6233C27.3646 18.3943 27.0988 18.0689 26.9419 17.6881C26.7849 17.3074 26.7438 16.8884 26.8239 16.4842C26.9039 16.08 27.1014 15.7087 27.3914 15.4173C27.6814 15.1259 28.0509 14.9274 28.4531 14.847C28.8554 14.7666 29.2723 14.8079 29.6512 14.9656C30.0301 15.1233 30.354 15.3904 30.5818 15.733C30.8097 16.0757 30.9313 16.4786 30.9313 16.8907C30.9324 17.1647 30.8795 17.4361 30.7757 17.6894C30.6718 17.9427 30.5191 18.1729 30.3264 18.3666C30.1336 18.5603 29.9046 18.7137 29.6525 18.8181C29.4004 18.9224 29.1303 18.9755 28.8577 18.9745ZM20.0426 1.62629e-05C19.77 -0.0010644 19.4998 0.0520959 19.2478 0.156432C18.9957 0.260768 18.7667 0.414215 18.5739 0.607925C18.3811 0.801636 18.2284 1.03178 18.1246 1.28508C18.0208 1.53838 17.9678 1.80983 17.9689 2.08377C17.9689 3.24006 19.3514 5.91625 20.0426 5.91625C20.7338 5.91625 22.1122 3.24006 22.1122 2.08377C22.1138 1.81002 22.0614 1.53866 21.958 1.28539C21.8546 1.03211 21.7023 0.801932 21.5099 0.608167C21.3174 0.414401 21.0886 0.260889 20.8368 0.156504C20.585 0.0521188 20.315 -0.00106845 20.0426 1.62629e-05ZM9.84506 0.694602C9.60352 0.82754 9.39138 1.00841 9.2215 1.22623C9.05163 1.44405 8.92756 1.69428 8.85684 1.96173C8.78612 2.22919 8.77021 2.5083 8.81008 2.78213C8.84995 3.05595 8.94477 3.31878 9.08879 3.55466C9.64583 4.54751 12.2115 6.16549 12.8051 5.83454C13.3987 5.50359 13.2646 2.46375 12.7035 1.4709C12.5673 1.23056 12.3851 1.01968 12.1674 0.850418C11.9497 0.681158 11.7008 0.556864 11.4351 0.484701C11.1694 0.412538 10.8921 0.393933 10.6192 0.429958C10.3463 0.465983 10.0832 0.555926 9.84506 0.694602ZM30.5003 0.661916C30.2639 0.523398 30.0027 0.433165 29.7315 0.396398C29.4603 0.359631 29.1846 0.377055 28.9201 0.447669C28.6556 0.518282 28.4077 0.640695 28.1904 0.807877C27.9732 0.97506 27.7909 1.18372 27.6541 1.42187C27.093 2.41472 26.9629 5.45456 27.5525 5.78551C28.142 6.11646 30.6792 4.49848 31.2729 3.50563C31.5281 3.02179 31.5903 2.4584 31.4468 1.93011C31.3033 1.40182 30.9648 0.948326 30.5003 0.661916Z" fill="white"/>
</svg>
