<svg width="32" height="32" viewBox="0 0 32 32" fill="none" xmlns="http://www.w3.org/2000/svg">
<path d="M24 16C19.6 16 16 19.6 16 24C16 28.4 19.6 32 24 32C28.4 32 32 28.4 32 24C32 19.6 28.4 16 24 16ZM27.8 29C27.2 29.6 26.4 29.6 26 29L22.4 25.4C22 25 22 24.6 22 24.2V19.2C22 18.6 22.6 17.8 23.4 17.8C24 17.8 24.8 18.4 24.8 19.2V23.8L28.2 27.2C28.4 27.6 28.4 28.4 27.8 29ZM28 6H22V0L28 6Z" fill="white"/>
<path d="M20 8V0H0V32H16.2C14.2 30 12.8 27.2 12.8 24C12.8 21.8 13.4 19.8 14.6 18H4.2C3 18 2.2 17.2 2.2 16C2.2 15 3 14 4.2 14H18C18.2 14 18.4 14 18.8 14.2C20.2 13.2 22 12.8 24 12.8C25.4 12.8 26.8 13 28 13.6V8H20ZM4.2 23H9C10.2 23 11 23.8 11 25C11 26.2 10.2 27 9 27H4.2C3 27 2.2 26.2 2.2 25C2.2 23.8 3 23 4.2 23ZM16 9H4.2C3 9 2.2 8.2 2.2 7C2.2 5.8 3 5 4.2 5H16C17.2 5 18 5.8 18 7C18 8.2 17.2 9 16 9Z" fill="white"/>
</svg>
