<svg width="46" height="46" viewBox="0 0 46 46" fill="none" xmlns="http://www.w3.org/2000/svg">
<path d="M36.4739 41.3962C36.1005 41.3738 35.7418 41.242 35.442 41.0172C35.1422 40.7924 34.9144 40.4844 34.7868 40.1311C34.6591 39.7778 34.6371 39.3947 34.7234 39.029C34.8098 38.6632 35.0008 38.3309 35.2729 38.0729C35.5449 37.815 35.8861 37.6426 36.2545 37.5772C36.6228 37.5117 37.0022 37.556 37.3458 37.7045C37.6894 37.8531 37.9822 38.0994 38.1882 38.4132C38.3942 38.7269 38.5043 39.0944 38.505 39.4702C38.5014 39.7319 38.4456 39.9902 38.3408 40.2298C38.236 40.4694 38.0844 40.6855 37.895 40.8651C37.7055 41.0447 37.4822 41.1843 37.238 41.2755C36.9939 41.3667 36.7341 41.4078 36.4739 41.3962ZM29.9515 41.3962C29.5781 41.3738 29.2194 41.242 28.9196 41.0172C28.6198 40.7924 28.3921 40.4844 28.2644 40.1311C28.1367 39.7778 28.1147 39.3947 28.2011 39.029C28.2874 38.6632 28.4784 38.3309 28.7505 38.0729C29.0225 37.815 29.3638 37.6426 29.7321 37.5772C30.1004 37.5117 30.4798 37.556 30.8234 37.7045C31.167 37.8531 31.4599 38.0994 31.6658 38.4132C31.8718 38.7269 31.9819 39.0944 31.9826 39.4702C31.979 39.7319 31.9232 39.9902 31.8184 40.2298C31.7136 40.4694 31.562 40.6855 31.3726 40.8651C31.1832 41.0447 30.9598 41.1843 30.7157 41.2755C30.4715 41.3667 30.2117 41.4078 29.9515 41.3962ZM6.69403 37.573H18.1368V41.3962H6.69403V37.573ZM3.60448 32.9737H0.171642V43.6959C0.174922 44.0117 0.242111 44.3236 0.369123 44.6125C0.496134 44.9014 0.680312 45.1613 0.91045 45.3764C1.14059 45.5915 1.41188 45.7574 1.70781 45.8638C2.00374 45.9702 2.31812 46.0151 2.63184 45.9956H43.3968C43.7086 46.0071 44.0197 45.9567 44.3122 45.8474C44.6046 45.738 44.8728 45.5718 45.1013 45.3582C45.3298 45.1446 45.5141 44.8879 45.6438 44.6026C45.7735 44.3174 45.8459 44.0093 45.857 43.6959V32.9737H3.60448ZM36.5597 8.4535C36.0236 8.49444 35.4925 8.32603 35.0768 7.98334C34.6612 7.64065 34.3931 7.15009 34.3284 6.61377C34.3489 6.09924 34.5597 5.6109 34.9194 5.24413C35.2791 4.87735 35.7619 4.6585 36.2736 4.63031C36.7905 4.61924 37.2931 4.80124 37.6842 5.14109C38.0752 5.48094 38.3269 5.95447 38.3905 6.47004C38.3853 6.97016 38.1948 7.45038 37.8563 7.81708C37.5179 8.18377 37.0556 8.41066 36.5597 8.4535V8.4535ZM30.0373 8.4535C29.6717 8.46749 29.3082 8.3909 28.979 8.23049C28.6497 8.07008 28.3648 7.83077 28.1493 7.53364C27.969 7.24511 27.8733 6.91133 27.8733 6.57065C27.8733 6.22997 27.969 5.89619 28.1493 5.60767C28.378 5.24429 28.7123 4.96031 29.107 4.79413C29.5016 4.62796 29.9376 4.58761 30.3558 4.67856C30.774 4.76951 31.1543 4.98736 31.4453 5.30264C31.7363 5.61791 31.9238 6.01539 31.9826 6.44129C31.9986 6.70486 31.9598 6.96889 31.8685 7.21649C31.7772 7.46409 31.6354 7.68982 31.4523 7.87922C31.2692 8.06862 31.0488 8.21753 30.8051 8.31642C30.5615 8.41531 30.3 8.462 30.0373 8.4535V8.4535ZM6.69403 4.60156H18.1368V8.4535H6.69403V4.60156ZM42.4241 0.0022294H3.66169C2.78351 -0.0211986 1.93136 0.303254 1.28913 0.905576C0.646906 1.5079 0.266089 2.3398 0.228856 3.22176V13.0528H46V3.22176C45.934 2.32461 45.5246 1.48806 44.8579 0.887742C44.1911 0.287425 43.3188 -0.0299585 42.4241 0.0022294V0.0022294ZM6.69403 21.4754H18.1368V25.2986H6.69403V21.4754ZM29.8657 21.4754C30.2565 21.4672 30.6416 21.571 30.976 21.7746C31.3103 21.9782 31.5801 22.2732 31.7537 22.6252C31.9148 22.9681 31.9628 23.3537 31.8907 23.7259C31.8187 24.0982 31.6304 24.4376 31.3532 24.6949C31.0552 24.9532 30.6965 25.131 30.3111 25.2115C29.9257 25.292 29.5263 25.2725 29.1505 25.1548C28.7857 25.0221 28.4671 24.7857 28.2335 24.4744C27.9999 24.1631 27.8613 23.7903 27.8346 23.4013C27.8705 22.8826 28.0994 22.3965 28.4757 22.0396C28.852 21.6828 29.3483 21.4813 29.8657 21.4754V21.4754ZM36.3881 21.4754C36.905 21.4643 37.4076 21.6463 37.7986 21.9861C38.1897 22.326 38.4414 22.7995 38.505 23.3151C38.4844 23.8296 38.2737 24.318 37.914 24.6847C37.5542 25.0515 37.0714 25.2704 36.5597 25.2986C36.0428 25.3096 35.5402 25.1276 35.1492 24.7878C34.7581 24.4479 34.5064 23.9744 34.4428 23.4588C34.45 22.94 34.6563 22.4439 35.0188 22.0743C35.3813 21.7047 35.8719 21.4901 36.3881 21.4754V21.4754ZM0.171642 29.8979H45.7711V16.876H0L0.171642 29.8979Z" fill="white"/>
</svg>
